<?xml version="1.0"?>
				<svg
					xmlns="http://www.w3.org/2000/svg"
					xmlns:xlink="http://www.w3.org/1999/xlink"
					xmlns:svgjs="http://svgjs.com/svgjs" version="1.1" width="512" height="512" x="0" y="0" viewBox="0 0 496 496" style="enable-background:new 0 0 512 512" xml:space="preserve" class="">
					<g transform="matrix(1,0,0,1,0,0)">
						<link type="text/css" rel="stylesheet" id="dark-mode-general-link"/>
						<link type="text/css" rel="stylesheet" id="dark-mode-custom-link"/>
						<style type="text/css" id="dark-mode-custom-style"/>
						<path
							xmlns="http://www.w3.org/2000/svg" d="m248 8c-132.546875 0-240 107.453125-240 240s107.453125 240 240 240 240-107.453125 240-240-107.453125-240-240-240zm-40 324-88-88 88 88 168-168zm0 0" fill="#fafafa" data-original="#c2fb3b" style="" class=""/>
							<g
								xmlns="http://www.w3.org/2000/svg" fill="#231f20">
								<path d="m248 0c-136.964844 0-248 111.035156-248 248s111.035156 248 248 248 248-111.035156 248-248c-.160156-136.902344-111.097656-247.839844-248-248zm0 480c-128.128906 0-232-103.871094-232-232s103.871094-232 232-232 232 103.871094 232 232c-.140625 128.070312-103.929688 231.859375-232 232zm0 0" fill="#000000" data-original="#231f20" style="" class=""/>
								
							</g>
						</g>
					</svg>