<?xml version="1.0"?>
<svg
						xmlns="http://www.w3.org/2000/svg"
						xmlns:xlink="http://www.w3.org/1999/xlink"
						xmlns:svgjs="http://svgjs.com/svgjs" version="1.1" width="512" height="512" x="0" y="0" viewBox="0 0 496 496" style="enable-background:new 0 0 512 512" xml:space="preserve" class="">
						<g transform="matrix(1,0,0,1,0,0)">
							<link type="text/css" rel="stylesheet" id="dark-mode-general-link"/>
							<link type="text/css" rel="stylesheet" id="dark-mode-custom-link"/>
							<style type="text/css" id="dark-mode-custom-style"/>
							<path
								xmlns="http://www.w3.org/2000/svg" d="m248 8c-132.546875 0-240 107.453125-240 240s107.453125 240 240 240 240-107.453125 240-240-107.453125-240-240-240zm-40 324-88-88 88 88 168-168zm0 0" fill="#4caf50" data-original="#c2fb3b" style="" class=""/>
								<g
									xmlns="http://www.w3.org/2000/svg" fill="#231f20">
									
									<path d="m370.34375 158.34375-162.34375 162.34375-82.34375-82.34375c-3.140625-3.03125-8.128906-2.988281-11.214844.097656-3.085937 3.085938-3.128906 8.074219-.097656 11.214844l88 88c3.125 3.121094 8.1875 3.121094 11.3125 0l168-168c3.03125-3.140625 2.988281-8.128906-.097656-11.214844-3.085938-3.085937-8.074219-3.128906-11.214844-.097656zm0 0" fill="#fafafa" data-original="#231f20" style="" class=""/>
								</g>
							</g>
						</svg>