<svg height="512pt" viewBox="0 0 512 512" width="512pt" xmlns="http://www.w3.org/2000/svg"><path d="m503.464844 512h-494.929688c-4.710937 0-8.535156-3.8125-8.535156-8.535156v-494.929688c0-4.722656 3.824219-8.535156 8.535156-8.535156h494.929688c4.710937 0 8.535156 3.8125 8.535156 8.535156v494.929688c0 4.722656-3.824219 8.535156-8.535156 8.535156zm-486.398438-17.066406h477.867188v-477.867188h-477.867188zm0 0"/><path d="m366.933594 426.667969c-4.710938 0-8.535156-3.816407-8.535156-8.535157v-332.800781c0-4.71875 3.824218-8.53125 8.535156-8.53125 4.710937 0 8.53125 3.8125 8.53125 8.53125v332.800781c0 4.71875-3.820313 8.535157-8.53125 8.535157zm0 0"/><path d="m366.933594 426.667969c-2.183594 0-4.371094-.835938-6.035156-2.5l-68.265626-68.269531c-3.335937-3.335938-3.335937-8.726563 0-12.066407 3.328126-3.335937 8.738282-3.335937 12.066407 0l68.265625 68.269531c3.339844 3.335938 3.339844 8.726563 0 12.066407-1.664063 1.664062-3.847656 2.5-6.03125 2.5zm0 0"/><path d="m366.933594 426.667969c-2.183594 0-4.371094-.835938-6.035156-2.5-3.335938-3.339844-3.335938-8.730469 0-12.066407l68.269531-68.269531c3.328125-3.335937 8.738281-3.335937 12.066406 0 3.335937 3.339844 3.335937 8.730469 0 12.066407l-68.269531 68.269531c-1.664063 1.664062-3.847656 2.5-6.03125 2.5zm0 0"/><path d="m221.867188 290.132812h-119.46875c-4.707032 0-8.53125-3.8125-8.53125-8.53125s3.824218-8.535156 8.53125-8.535156h119.46875c4.710937 0 8.53125 3.816406 8.53125 8.535156s-3.820313 8.53125-8.53125 8.53125zm0 0"/><path d="m221.867188 426.667969h-119.46875c-4.707032 0-8.53125-3.816407-8.53125-8.535157s3.824218-8.53125 8.53125-8.53125h119.46875c4.710937 0 8.53125 3.8125 8.53125 8.53125s-3.820313 8.535157-8.53125 8.535157zm0 0"/><path d="m102.398438 426.667969c-1.996094 0-3.992188-.691407-5.613282-2.109375-3.550781-3.105469-3.910156-8.5-.800781-12.039063l119.464844-136.535156c3.105469-3.550781 8.5-3.90625 12.039062-.808594 3.550781 3.105469 3.910157 8.496094.804688 12.039063l-119.46875 136.535156c-1.6875 1.933594-4.050781 2.917969-6.425781 2.917969zm0 0"/><path d="m93.859375 230.398438c-1.28125 0-2.585937-.289063-3.816406-.894532-4.214844-2.109375-5.921875-7.234375-3.8125-11.453125l68.265625-136.53125c2.109375-4.214843 7.234375-5.90625 11.453125-3.816406 4.214843 2.109375 5.921875 7.238281 3.8125 11.453125l-68.265625 136.535156c-1.492188 2.984375-4.507813 4.707032-7.636719 4.707032zm0 0"/><path d="m230.410156 230.398438c-3.132812 0-6.144531-1.722657-7.640625-4.71875l-68.265625-136.53125c-2.105468-4.214844-.402344-9.34375 3.816406-11.453126 4.214844-2.097656 9.335938-.410156 11.449219 3.816407l68.269531 136.53125c2.105469 4.214843.398438 9.34375-3.816406 11.453125-1.230468.613281-2.535156.902344-3.8125.902344zm0 0"/><path d="m221.867188 179.199219h-119.46875c-4.707032 0-8.53125-3.8125-8.53125-8.53125s3.824218-8.535157 8.53125-8.535157h119.46875c4.710937 0 8.53125 3.816407 8.53125 8.535157s-3.820313 8.53125-8.53125 8.53125zm0 0"/></svg>